# xmcd CD database file
#
# Track frame offsets:
#	150
#	18101
#	45839
#	73045
#	94135
#	115743
#	139928
#	161787
#	184426
#	209238
#
# Disc length: 3027 seconds
#
# Revision: 0
# Processed by: cddbd v1.5.2PL0 Copyright (c) Steve Scherf et al.
# Submitted via: CDex 1.51
#
DISCID=8f0bd10a
DTITLE=Harold Rayford Bryant Pugh Allen and Allen  Jr. and Friends and Tekneek - This is Gospel Inspirational Jazz
DYEAR=2001
DGENRE=Jazz
TTITLE0=Wade In the Water
TTITLE1=Message 4 Da Youth
TTITLE2=What If...
TTITLE3=Say A Little Prayer
TTITLE4=Searching
TTITLE5=Why We Sing
TTITLE6=Tight
TTITLE7=Make A Change
TTITLE8=Dana's Melody
TTITLE9=What A Friend We Have In Jesus
EXTD=YEAR: 2001
EXTT0=
EXTT1=
EXTT2=
EXTT3=
EXTT4=
EXTT5=
EXTT6=
EXTT7=
EXTT8=
EXTT9=
PLAYORDER=
